<?xml version="1.0" standalone="no"?>
<!DOCTYPE svg PUBLIC "-//W3C//DTD SVG 20010904//EN"
 "http://www.w3.org/TR/2001/REC-SVG-20010904/DTD/svg10.dtd">
<svg version="1.0" xmlns="http://www.w3.org/2000/svg"
 width="1024.000000pt" height="1024.000000pt" viewBox="0 0 1024.000000 1024.000000"
 preserveAspectRatio="xMidYMid meet">

<g transform="translate(0.000000,1024.000000) scale(0.100000,-0.100000)"
fill="#000000" stroke="none">
<path d="M8615 8320 c-3 -5 -1 -10 4 -10 6 0 11 5 11 10 0 6 -2 10 -4 10 -3 0
-8 -4 -11 -10z"/>
<path d="M8325 8100 c-3 -5 -1 -10 4 -10 6 0 11 5 11 10 0 6 -2 10 -4 10 -3 0
-8 -4 -11 -10z"/>
<path d="M8090 7958 c0 -4 7 -8 15 -8 8 0 15 4 15 8 0 5 -7 9 -15 9 -8 0 -15
-4 -15 -9z"/>
<path d="M7575 7900 c3 -5 8 -10 11 -10 2 0 4 5 4 10 0 6 -5 10 -11 10 -5 0
-7 -4 -4 -10z"/>
<path d="M7620 7900 c0 -13 18 -22 24 -11 3 5 -1 11 -9 15 -8 3 -15 1 -15 -4z"/>
<path d="M7455 7820 c-3 -5 1 -10 10 -10 9 0 13 5 10 10 -3 6 -8 10 -10 10 -2
0 -7 -4 -10 -10z"/>
<path d="M7748 7783 c7 -3 16 -2 19 1 4 3 -2 6 -13 5 -11 0 -14 -3 -6 -6z"/>
<path d="M7610 7751 c0 -6 4 -13 10 -16 6 -3 7 1 4 9 -7 18 -14 21 -14 7z"/>
<path d="M7465 7720 c3 -5 8 -10 11 -10 2 0 4 5 4 10 0 6 -5 10 -11 10 -5 0
-7 -4 -4 -10z"/>
<path d="M7726 7713 c-6 -14 -5 -15 5 -6 7 7 10 15 7 18 -3 3 -9 -2 -12 -12z"/>
<path d="M7905 7670 c-3 -5 -1 -10 4 -10 6 0 11 5 11 10 0 6 -2 10 -4 10 -3 0
-8 -4 -11 -10z"/>
<path d="M7566 7642 c-3 -3 -6 -12 -6 -20 0 -12 3 -12 15 -2 8 7 24 10 34 7
12 -3 18 0 15 7 -4 11 -49 18 -58 8z"/>
<path d="M8120 7640 c0 -5 5 -10 11 -10 5 0 7 5 4 10 -3 6 -8 10 -11 10 -2 0
-4 -4 -4 -10z"/>
<path d="M7750 7620 c0 -5 5 -10 11 -10 5 0 7 5 4 10 -3 6 -8 10 -11 10 -2 0
-4 -4 -4 -10z"/>
<path d="M7700 7570 c-13 -8 -12 -10 3 -10 9 0 17 5 17 10 0 12 -1 12 -20 0z"/>
<path d="M7480 7550 c0 -5 5 -10 11 -10 5 0 7 5 4 10 -3 6 -8 10 -11 10 -2 0
-4 -4 -4 -10z"/>
<path d="M8080 7476 c0 -2 7 -7 16 -10 8 -3 12 -2 9 4 -6 10 -25 14 -25 6z"/>
<path d="M7345 7401 c-3 -5 -1 -12 5 -16 5 -3 10 1 10 9 0 18 -6 21 -15 7z"/>
<path d="M7090 7379 c0 -5 5 -7 10 -4 6 3 10 8 10 11 0 2 -4 4 -10 4 -5 0 -10
-5 -10 -11z"/>
<path d="M7407 7363 c-12 -12 -7 -19 14 -20 17 -2 18 1 9 13 -14 16 -14 16
-23 7z"/>
<path d="M7856 7338 c3 -4 12 -8 20 -8 8 0 14 4 14 8 0 4 -9 8 -19 8 -11 0
-17 -4 -15 -8z"/>
<path d="M7226 7313 c-6 -14 -5 -15 5 -6 7 7 10 15 7 18 -3 3 -9 -2 -12 -12z"/>
<path d="M7262 7304 c-7 -8 -8 -14 -3 -14 10 0 25 19 20 25 -2 1 -10 -3 -17
-11z"/>
<path d="M7654 7312 c-9 -6 -11 -22 -5 -47 2 -5 7 3 12 19 9 33 8 38 -7 28z"/>
<path d="M7810 7260 c0 -5 5 -10 11 -10 5 0 7 5 4 10 -3 6 -8 10 -11 10 -2 0
-4 -4 -4 -10z"/>
<path d="M7206 7236 c3 -8 1 -17 -5 -21 -14 -8 -14 -45 -1 -45 6 0 15 11 20
24 5 13 17 29 27 34 10 6 14 14 9 19 -5 4 -11 2 -13 -4 -3 -9 -10 -10 -24 -3
-15 8 -17 7 -13 -4z"/>
<path d="M7240 7200 c0 -5 4 -10 9 -10 6 0 13 5 16 10 3 6 -1 10 -9 10 -9 0
-16 -4 -16 -10z"/>
<path d="M7146 7175 c-3 -8 -1 -15 3 -15 5 0 11 7 15 15 3 8 1 15 -3 15 -5 0
-11 -7 -15 -15z"/>
<path d="M7095 7119 c-4 -6 -5 -12 -2 -15 2 -3 7 2 10 11 7 17 1 20 -8 4z"/>
<path d="M7205 7110 c-3 -5 -1 -10 4 -10 6 0 11 5 11 10 0 6 -2 10 -4 10 -3 0
-8 -4 -11 -10z"/>
<path d="M6900 7022 c0 -4 9 -8 20 -9 11 -1 20 2 20 8 0 5 -9 9 -20 9 -11 0
-20 -4 -20 -8z"/>
<path d="M6762 6985 c-11 -12 -10 -15 3 -15 8 0 15 7 15 15 0 18 -2 18 -18 0z"/>
<path d="M6868 6989 c-7 -5 -11 -9 -8 -9 3 0 20 -4 38 -9 24 -7 32 -7 32 4 0
15 -43 25 -62 14z"/>
<path d="M7230 6930 c0 -6 5 -10 11 -10 6 0 8 -9 4 -20 -4 -11 -2 -20 4 -20
17 0 13 47 -4 54 -8 3 -15 1 -15 -4z"/>
<path d="M6945 6910 c3 -5 8 -10 11 -10 2 0 4 5 4 10 0 6 -5 10 -11 10 -5 0
-7 -4 -4 -10z"/>
<path d="M6720 6895 c0 -8 4 -15 10 -15 5 0 7 7 4 15 -4 8 -8 15 -10 15 -2 0
-4 -7 -4 -15z"/>
<path d="M6917 6854 c-8 -9 5 -44 17 -44 6 0 18 11 27 23 16 21 15 22 -11 24
-15 1 -30 0 -33 -3z"/>
<path d="M6885 6830 c3 -5 8 -10 11 -10 2 0 4 5 4 10 0 6 -5 10 -11 10 -5 0
-7 -4 -4 -10z"/>
<path d="M7257 6771 c-17 -6 -17 -8 2 -25 21 -19 21 -19 21 7 0 15 -1 27 -2
26 -2 0 -11 -4 -21 -8z"/>
<path d="M7076 6745 c-3 -8 -1 -15 4 -15 6 0 10 7 10 15 0 8 -2 15 -4 15 -2 0
-6 -7 -10 -15z"/>
<path d="M6711 6704 c0 -11 3 -14 6 -6 3 7 2 16 -1 19 -3 4 -6 -2 -5 -13z"/>
<path d="M6615 6640 c3 -5 8 -10 11 -10 2 0 4 5 4 10 0 6 -5 10 -11 10 -5 0
-7 -4 -4 -10z"/>
<path d="M7106 6597 c3 -10 9 -15 12 -12 3 3 0 11 -7 18 -10 9 -11 8 -5 -6z"/>
<path d="M7130 6565 c0 -8 5 -15 10 -15 6 0 10 7 10 15 0 8 -4 15 -10 15 -5 0
-10 -7 -10 -15z"/>
<path d="M6763 6545 c-3 -9 -3 -18 0 -21 9 -9 27 6 27 22 0 19 -19 18 -27 -1z"/>
<path d="M6365 6540 c3 -5 8 -10 11 -10 2 0 4 5 4 10 0 6 -5 10 -11 10 -5 0
-7 -4 -4 -10z"/>
<path d="M6937 6543 c-10 -9 -9 -23 2 -23 5 0 11 7 15 15 5 15 -5 20 -17 8z"/>
<path d="M7040 6522 c0 -6 -8 -13 -17 -15 -16 -4 -16 -5 -1 -6 18 -1 34 16 24
26 -3 4 -6 1 -6 -5z"/>
<path d="M6568 6503 c6 -2 12 -13 12 -23 0 -10 7 -21 16 -24 12 -5 14 -1 8 17
-7 23 -22 37 -39 36 -5 0 -4 -3 3 -6z"/>
<path d="M6630 6475 c0 -9 9 -15 21 -15 18 0 19 2 5 15 -8 8 -17 15 -20 15 -3
0 -6 -7 -6 -15z"/>
<path d="M6698 6453 c-19 -10 -25 -19 -21 -30 6 -14 8 -14 21 5 13 20 16 20
26 6 10 -13 12 -13 13 5 2 27 -7 30 -39 14z"/>
<path d="M6956 6454 c-4 -9 -4 -19 -1 -22 2 -3 7 3 11 12 4 9 4 19 1 22 -2 3
-7 -3 -11 -12z"/>
<path d="M6900 6423 c0 -6 -3 -18 -6 -27 -4 -11 1 -14 22 -12 16 2 30 9 32 16
3 7 -1 11 -9 8 -8 -3 -19 2 -26 11 -7 9 -12 11 -13 4z"/>
<path d="M6510 6396 c0 -9 5 -16 10 -16 6 0 10 4 10 9 0 6 -4 13 -10 16 -5 3
-10 -1 -10 -9z"/>
<path d="M6423 6330 c-1 -34 2 -40 20 -40 20 0 20 0 1 -15 -19 -14 -18 -14 4
-15 26 0 29 25 7 54 -8 11 -15 28 -15 38 0 37 -15 17 -17 -22z"/>
<path d="M6830 6353 c0 -17 4 -20 22 -15 16 4 18 7 8 10 -8 3 -18 10 -22 16
-5 6 -8 2 -8 -11z"/>
<path d="M6470 6345 c-11 -13 -10 -14 4 -9 9 3 16 10 16 15 0 13 -6 11 -20 -6z"/>
<path d="M6645 6349 c-9 -14 -2 -20 14 -10 8 6 9 11 3 15 -6 3 -14 1 -17 -5z"/>
<path d="M7020 6320 c0 -5 5 -10 10 -10 6 0 10 5 10 10 0 6 -4 10 -10 10 -5 0
-10 -4 -10 -10z"/>
<path d="M7215 6310 c-3 -5 -1 -10 4 -10 6 0 11 5 11 10 0 6 -2 10 -4 10 -3 0
-8 -4 -11 -10z"/>
<path d="M6526 6285 c4 -8 8 -15 10 -15 2 0 4 7 4 15 0 8 -4 15 -10 15 -5 0
-7 -7 -4 -15z"/>
<path d="M6607 6284 c-11 -11 3 -24 26 -23 15 0 17 2 7 6 -8 3 -18 10 -21 15
-3 4 -8 5 -12 2z"/>
<path d="M6507 6206 c-6 -14 0 -26 13 -26 3 0 6 9 7 20 2 23 -12 27 -20 6z"/>
<path d="M6371 6184 c0 -11 3 -14 6 -6 3 7 2 16 -1 19 -3 4 -6 -2 -5 -13z"/>
<path d="M6945 6168 c-4 -18 -12 -39 -18 -46 -7 -9 -7 -16 1 -24 9 -9 12 -8
12 3 0 9 11 26 24 38 21 20 23 26 13 42 -17 27 -24 24 -32 -13z"/>
<path d="M6274 6132 c11 -12 19 -13 27 -5 7 7 3 12 -16 15 -25 5 -25 4 -11
-10z"/>
<path d="M6878 6123 c7 -3 16 -2 19 1 4 3 -2 6 -13 5 -11 0 -14 -3 -6 -6z"/>
<path d="M6270 6086 c0 -2 7 -7 16 -10 8 -3 12 -2 9 4 -6 10 -25 14 -25 6z"/>
<path d="M6531 5986 c-13 -14 -21 -31 -18 -38 4 -10 6 -10 6 1 1 7 12 24 27
37 14 13 21 24 16 24 -5 0 -19 -11 -31 -24z"/>
<path d="M6451 5964 c0 -11 3 -14 6 -6 3 7 2 16 -1 19 -3 4 -6 -2 -5 -13z"/>
<path d="M6655 5901 c-3 -5 -1 -12 5 -16 5 -3 10 1 10 9 0 18 -6 21 -15 7z"/>
<path d="M6570 5871 c0 -5 5 -13 10 -16 6 -3 10 -2 10 4 0 5 -4 13 -10 16 -5
3 -10 2 -10 -4z"/>
<path d="M6052 5850 c-7 -11 -9 -20 -4 -20 4 0 15 9 25 20 11 14 13 20 4 20
-7 0 -18 -9 -25 -20z"/>
<path d="M5940 5845 c7 -8 16 -15 21 -15 5 0 6 7 3 15 -4 8 -13 15 -21 15 -13
0 -13 -3 -3 -15z"/>
<path d="M5856 5825 c-11 -8 -15 -15 -9 -15 6 0 16 7 23 15 16 19 11 19 -14 0z"/>
<path d="M6440 5830 c0 -5 5 -10 11 -10 5 0 7 5 4 10 -3 6 -8 10 -11 10 -2 0
-4 -4 -4 -10z"/>
<path d="M5975 5820 c-3 -5 1 -10 9 -10 9 0 16 5 16 10 0 6 -4 10 -9 10 -6 0
-13 -4 -16 -10z"/>
<path d="M5920 5811 c0 -6 4 -13 10 -16 6 -3 7 1 4 9 -7 18 -14 21 -14 7z"/>
<path d="M6590 5800 c0 -6 7 -10 15 -10 8 0 15 2 15 4 0 2 -7 6 -15 10 -8 3
-15 1 -15 -4z"/>
<path d="M6135 5780 c3 -5 8 -10 11 -10 2 0 4 5 4 10 0 6 -5 10 -11 10 -5 0
-7 -4 -4 -10z"/>
<path d="M6675 5750 c-3 -5 1 -10 9 -10 9 0 16 5 16 10 0 6 -4 10 -9 10 -6 0
-13 -4 -16 -10z"/>
<path d="M6466 5738 c7 -11 34 -10 34 1 0 6 -9 9 -19 8 -11 0 -17 -5 -15 -9z"/>
<path d="M6615 5740 c-3 -5 -1 -18 4 -27 9 -16 10 -14 11 10 0 28 -5 34 -15
17z"/>
<path d="M5985 5710 c-3 -5 1 -10 9 -10 9 0 16 5 16 10 0 6 -4 10 -9 10 -6 0
-13 -4 -16 -10z"/>
<path d="M6280 5680 c0 -5 5 -10 10 -10 6 0 10 5 10 10 0 6 -4 10 -10 10 -5 0
-10 -4 -10 -10z"/>
<path d="M6170 5670 c0 -5 5 -10 11 -10 5 0 7 5 4 10 -3 6 -8 10 -11 10 -2 0
-4 -4 -4 -10z"/>
<path d="M6250 5657 c0 -1 9 -10 20 -20 19 -16 20 -16 20 3 0 13 -7 20 -20 20
-11 0 -20 -1 -20 -3z"/>
<path d="M6330 5625 c-7 -9 -8 -15 -2 -15 5 0 12 7 16 15 3 8 4 15 2 15 -2 0
-9 -7 -16 -15z"/>
<path d="M5914 5582 c-9 -5 -8 -10 1 -19 11 -10 13 -9 12 7 -1 11 -1 20 -2 20
0 0 -5 -4 -11 -8z"/>
<path d="M6260 5580 c0 -5 6 -10 14 -10 8 0 17 -6 19 -12 4 -10 6 -10 6 -1 1
7 -8 17 -19 23 -14 7 -20 7 -20 0z"/>
<path d="M6170 5545 c-19 -23 -9 -25 25 -4 26 17 27 19 9 19 -12 0 -27 -7 -34
-15z"/>
<path d="M6082 5516 c7 -8 16 -12 21 -9 11 7 -2 23 -19 23 -12 0 -12 -2 -2
-14z"/>
<path d="M6190 5520 c-8 -5 -12 -12 -9 -15 4 -3 12 1 19 10 14 17 11 19 -10 5z"/>
<path d="M6315 5520 c-3 -6 1 -7 9 -4 18 7 21 14 7 14 -6 0 -13 -4 -16 -10z"/>
<path d="M5810 5494 c0 -3 7 -12 15 -20 16 -17 18 -14 9 10 -6 15 -24 23 -24
10z"/>
<path d="M6386 5457 c-4 -14 0 -27 12 -36 16 -13 16 -13 -2 -7 -15 5 -17 2
-12 -19 5 -19 3 -23 -9 -19 -11 5 -13 2 -9 -10 9 -23 33 -20 60 10 29 30 30
36 7 27 -16 -6 -16 -5 -4 10 11 14 11 18 -3 23 -9 3 -16 12 -16 19 0 24 -18
26 -24 2z"/>
<path d="M6331 5450 c0 -8 4 -22 9 -30 12 -18 12 -2 0 25 -6 13 -9 15 -9 5z"/>
<path d="M6132 5419 c-11 -17 -9 -19 14 -19 14 0 23 -4 19 -10 -3 -5 1 -10 9
-10 33 0 28 26 -10 46 -17 10 -22 9 -32 -7z"/>
<path d="M5765 5420 c3 -5 11 -10 16 -10 6 0 7 5 4 10 -3 6 -11 10 -16 10 -6
0 -7 -4 -4 -10z"/>
<path d="M6072 5371 c1 -17 6 -31 10 -31 12 0 10 48 -2 55 -6 4 -10 -5 -8 -24z"/>
<path d="M6260 5390 c0 -5 5 -10 11 -10 5 0 7 5 4 10 -3 6 -8 10 -11 10 -2 0
-4 -4 -4 -10z"/>
<path d="M5530 5386 c0 -2 7 -6 15 -10 8 -3 15 -1 15 4 0 6 -7 10 -15 10 -8 0
-15 -2 -15 -4z"/>
<path d="M6045 5350 c3 -5 8 -10 11 -10 2 0 4 5 4 10 0 6 -5 10 -11 10 -5 0
-7 -4 -4 -10z"/>
<path d="M5561 5334 c0 -11 3 -14 6 -6 3 7 2 16 -1 19 -3 4 -6 -2 -5 -13z"/>
<path d="M5503 5333 c-7 -2 -13 -9 -13 -15 0 -7 5 -7 13 1 8 6 17 8 20 4 4 -3
7 -1 7 5 0 13 -7 14 -27 5z"/>
<path d="M6300 5318 c0 -8 7 -15 15 -15 18 0 15 19 -3 25 -7 2 -12 -3 -12 -10z"/>
<path d="M6067 5299 c-5 -20 1 -23 27 -13 22 8 20 21 -3 27 -13 3 -21 -1 -24
-14z"/>
<path d="M5585 5300 c3 -5 8 -10 11 -10 2 0 4 5 4 10 0 6 -5 10 -11 10 -5 0
-7 -4 -4 -10z"/>
<path d="M5545 5280 c3 -5 11 -10 16 -10 6 0 7 5 4 10 -3 6 -11 10 -16 10 -6
0 -7 -4 -4 -10z"/>
<path d="M6337 5263 c15 -23 18 -24 21 -9 2 10 -2 22 -10 27 -24 16 -29 9 -11
-18z"/>
<path d="M5685 5270 c-3 -5 -1 -10 4 -10 6 0 11 5 11 10 0 6 -2 10 -4 10 -3 0
-8 -4 -11 -10z"/>
<path d="M6295 5270 c3 -5 8 -10 11 -10 2 0 4 5 4 10 0 6 -5 10 -11 10 -5 0
-7 -4 -4 -10z"/>
<path d="M5586 5264 c7 -3 9 -14 6 -26 -3 -15 -1 -19 9 -16 8 2 15 14 17 26 3
17 -2 22 -20 21 -13 0 -18 -3 -12 -5z"/>
<path d="M6110 5260 c0 -5 5 -10 10 -10 6 0 10 5 10 10 0 6 -4 10 -10 10 -5 0
-10 -4 -10 -10z"/>
<path d="M5676 5236 c3 -9 13 -16 22 -16 8 0 13 1 11 3 -2 1 -12 9 -22 16 -15
12 -17 12 -11 -3z"/>
<path d="M5746 5234 c-3 -9 -4 -20 0 -25 7 -12 41 -11 49 1 4 7 -2 9 -19 4
-28 -7 -34 4 -14 24 8 8 8 12 1 12 -6 0 -14 -7 -17 -16z"/>
<path d="M6090 5226 c0 -17 16 -30 23 -19 3 5 -1 14 -9 21 -12 10 -14 10 -14
-2z"/>
<path d="M5360 5169 c0 -5 5 -7 10 -4 6 3 10 8 10 11 0 2 -4 4 -10 4 -5 0 -10
-5 -10 -11z"/>
<path d="M5555 5120 c3 -5 8 -10 11 -10 2 0 4 5 4 10 0 6 -5 10 -11 10 -5 0
-7 -4 -4 -10z"/>
<path d="M5937 5113 c-14 -13 -7 -43 11 -43 14 0 15 2 2 10 -13 8 -13 10 2 10
11 0 15 5 12 15 -7 16 -17 19 -27 8z"/>
<path d="M5535 5090 c4 -6 11 -8 16 -5 14 9 11 15 -7 15 -8 0 -12 -5 -9 -10z"/>
<path d="M5340 5075 c0 -8 4 -15 9 -15 5 0 14 7 21 15 10 13 9 15 -9 15 -12 0
-21 -6 -21 -15z"/>
<path d="M5735 5030 c-3 -5 -4 -10 -1 -10 2 0 11 -3 20 -6 11 -4 16 -1 16 10
0 18 -25 22 -35 6z"/>
<path d="M5253 5012 c1 -13 8 -22 18 -22 10 0 19 -6 22 -12 2 -8 8 -9 13 -4 5
5 4 11 -3 13 -7 3 -13 11 -13 19 0 9 -5 12 -11 8 -6 -3 -15 0 -20 7 -6 10 -8
7 -6 -9z"/>
<path d="M5663 4993 c-7 -2 -13 -10 -13 -16 0 -8 3 -8 12 1 7 7 17 8 29 2 11
-7 20 -7 24 0 3 5 2 10 -4 10 -5 0 -15 2 -23 4 -7 3 -19 2 -25 -1z"/>
<path d="M5365 4960 c-5 -9 -4 -15 3 -18 7 -2 12 -8 12 -14 0 -5 7 -16 15 -24
13 -14 15 -14 15 0 0 8 -5 18 -11 21 -6 4 -14 16 -18 28 -6 16 -10 17 -16 7z"/>
<path d="M5249 4958 c-1 -2 -2 -15 -3 -29 -1 -18 2 -25 11 -22 7 3 13 10 13
17 0 6 5 3 11 -6 5 -10 18 -18 27 -18 15 1 14 3 -3 16 -17 13 -18 16 -5 25 13
9 12 10 -2 5 -10 -3 -20 -1 -23 4 -6 9 -23 14 -26 8z"/>
<path d="M5460 4956 c0 -2 7 -7 16 -10 8 -3 12 -2 9 4 -6 10 -25 14 -25 6z"/>
<path d="M5890 4935 c0 -11 -7 -14 -25 -9 -15 4 -25 2 -25 -5 0 -6 7 -8 15 -5
14 6 20 -10 16 -41 -1 -5 4 -3 11 5 7 9 21 14 31 12 10 -2 17 3 17 11 0 9 3
22 6 31 5 12 0 16 -20 16 -17 0 -26 -5 -26 -15z"/>
<path d="M6145 4930 c-3 -5 1 -10 9 -10 9 0 16 5 16 10 0 6 -4 10 -9 10 -6 0
-13 -4 -16 -10z"/>
<path d="M5530 4926 c0 -2 9 -6 20 -9 11 -3 20 -1 20 4 0 5 -9 9 -20 9 -11 0
-20 -2 -20 -4z"/>
<path d="M5475 4901 c-3 -5 -1 -12 5 -16 5 -3 10 1 10 9 0 18 -6 21 -15 7z"/>
<path d="M5517 4884 c6 -15 23 -19 23 -5 0 5 -7 11 -14 14 -10 4 -13 1 -9 -9z"/>
<path d="M6118 4853 c7 -3 16 -2 19 1 4 3 -2 6 -13 5 -11 0 -14 -3 -6 -6z"/>
<path d="M5755 4830 c-3 -5 -1 -10 4 -10 6 0 11 5 11 10 0 6 -2 10 -4 10 -3 0
-8 -4 -11 -10z"/>
<path d="M5356 4815 c4 -8 8 -15 10 -15 2 0 4 7 4 15 0 8 -4 15 -10 15 -5 0
-7 -7 -4 -15z"/>
<path d="M6140 4821 c0 -6 5 -13 10 -16 6 -3 10 1 10 9 0 9 -4 16 -10 16 -5 0
-10 -4 -10 -9z"/>
<path d="M5926 4812 c-2 -4 -1 -14 5 -22 7 -12 9 -10 9 8 0 23 -5 28 -14 14z"/>
<path d="M5728 4803 c6 -2 12 -14 12 -26 0 -14 3 -18 10 -11 15 15 2 44 -19
43 -10 0 -11 -2 -3 -6z"/>
<path d="M5662 4750 c-10 -17 -10 -20 3 -20 8 0 15 9 15 20 0 11 -1 20 -3 20
-1 0 -8 -9 -15 -20z"/>
<path d="M5860 4756 c0 -8 4 -17 9 -20 5 -4 7 3 4 14 -6 23 -13 26 -13 6z"/>
<path d="M5770 4750 c0 -5 5 -10 10 -10 6 0 10 5 10 10 0 6 -4 10 -10 10 -5 0
-10 -4 -10 -10z"/>
<path d="M5375 4720 c3 -5 11 -10 16 -10 6 0 7 5 4 10 -3 6 -11 10 -16 10 -6
0 -7 -4 -4 -10z"/>
<path d="M6010 4720 c0 -5 5 -10 10 -10 6 0 10 5 10 10 0 6 -4 10 -10 10 -5 0
-10 -4 -10 -10z"/>
<path d="M5820 4697 c0 -8 7 -17 15 -21 8 -3 15 -3 15 0 0 3 -7 12 -15 20 -13
13 -15 13 -15 1z"/>
<path d="M5680 4656 c0 -2 7 -7 16 -10 8 -3 12 -2 9 4 -6 10 -25 14 -25 6z"/>
<path d="M5930 4624 c0 -8 5 -12 10 -9 6 3 10 10 10 16 0 5 -4 9 -10 9 -5 0
-10 -7 -10 -16z"/>
<path d="M5695 4610 c-3 -5 -4 -14 0 -19 3 -5 -2 -11 -12 -13 -13 -2 -11 -6
10 -15 22 -10 25 -10 20 2 -3 9 1 15 11 15 19 0 21 11 4 28 -15 15 -25 15 -33
2z"/>
<path d="M5196 4544 c-5 -14 -4 -15 9 -4 17 14 19 20 6 20 -5 0 -12 -7 -15
-16z"/>
<path d="M5151 4503 c7 -12 15 -20 18 -17 3 2 -3 12 -13 22 -17 16 -18 16 -5
-5z"/>
<path d="M5130 4470 c0 -5 5 -10 10 -10 6 0 10 5 10 10 0 6 -4 10 -10 10 -5 0
-10 -4 -10 -10z"/>
<path d="M5330 4476 c0 -9 30 -14 35 -6 4 6 -3 10 -14 10 -12 0 -21 -2 -21 -4z"/>
<path d="M5747 4460 c-4 -15 0 -20 15 -20 18 0 19 2 7 18 -7 9 -14 18 -15 20
-1 1 -4 -6 -7 -18z"/>
<path d="M5280 4454 c0 -11 29 -34 34 -26 2 4 -4 13 -15 20 -10 7 -19 10 -19
6z"/>
<path d="M5690 4456 c0 -2 7 -6 15 -10 8 -3 15 -1 15 4 0 6 -7 10 -15 10 -8 0
-15 -2 -15 -4z"/>
<path d="M4876 4435 c-3 -8 -1 -15 4 -15 13 0 22 18 11 24 -5 3 -11 -1 -15 -9z"/>
<path d="M5740 4405 c0 -9 6 -12 15 -9 8 4 12 10 9 15 -8 14 -24 10 -24 -6z"/>
<path d="M5130 4400 c-12 -8 -11 -10 8 -10 12 0 22 5 22 10 0 13 -11 13 -30 0z"/>
<path d="M5080 4390 c0 -5 9 -14 19 -19 16 -9 18 -8 14 9 -5 20 -33 29 -33 10z"/>
<path d="M5410 4373 c0 -10 4 -14 8 -8 4 6 11 13 16 18 5 4 2 7 -7 7 -10 0
-17 -8 -17 -17z"/>
<path d="M5146 4319 c3 -6 0 -15 -7 -20 -12 -7 -11 -11 2 -25 11 -11 19 -12
23 -5 4 6 2 11 -4 11 -6 0 -8 10 -4 25 4 16 2 25 -6 25 -6 0 -8 -5 -4 -11z"/>
<path d="M5081 4304 c0 -11 3 -14 6 -6 3 7 2 16 -1 19 -3 4 -6 -2 -5 -13z"/>
<path d="M5382 4269 c2 -7 10 -15 17 -17 8 -3 12 1 9 9 -2 7 -10 15 -17 17 -8
3 -12 -1 -9 -9z"/>
<path d="M5027 4263 c-4 -3 -7 -11 -7 -17 0 -6 5 -5 12 2 6 6 9 14 7 17 -3 3
-9 2 -12 -2z"/>
<path d="M5552 4210 c0 -14 2 -19 5 -12 2 6 2 18 0 25 -3 6 -5 1 -5 -13z"/>
<path d="M5448 4213 c7 -3 16 -2 19 1 4 3 -2 6 -13 5 -11 0 -14 -3 -6 -6z"/>
<path d="M5006 4186 c7 -19 48 -22 42 -3 -3 6 -14 13 -26 15 -16 3 -20 -1 -16
-12z"/>
<path d="M5487 4189 c7 -7 15 -10 18 -7 3 3 -2 9 -12 12 -14 6 -15 5 -6 -5z"/>
<path d="M5330 4170 c-9 -17 -8 -20 8 -20 11 0 18 7 18 20 0 11 -4 20 -8 20
-4 0 -12 -9 -18 -20z"/>
<path d="M5380 4146 c0 -15 18 -31 26 -23 7 7 -7 37 -17 37 -5 0 -9 -6 -9 -14z"/>
<path d="M5275 4130 c-3 -5 3 -10 14 -10 12 0 21 5 21 10 0 6 -6 10 -14 10 -8
0 -18 -4 -21 -10z"/>
<path d="M5242 4100 c0 -14 2 -19 5 -12 2 6 2 18 0 25 -3 6 -5 1 -5 -13z"/>
<path d="M5344 4098 c0 -25 23 -54 34 -43 4 3 0 12 -8 18 -9 7 -14 20 -12 30
2 9 0 17 -5 17 -5 0 -9 -10 -9 -22z"/>
<path d="M1980 4095 c0 -9 6 -12 15 -9 8 4 15 7 15 9 0 2 -7 5 -15 9 -9 3 -15
0 -15 -9z"/>
<path d="M2544 4099 c-3 -6 0 -18 9 -26 13 -13 14 -12 10 11 -6 29 -9 31 -19
15z"/>
<path d="M4840 4095 c0 -8 2 -15 4 -15 2 0 6 7 10 15 3 8 1 15 -4 15 -6 0 -10
-7 -10 -15z"/>
<path d="M5270 4099 c0 -9 7 -22 15 -29 19 -16 19 0 0 26 -12 16 -14 16 -15 3z"/>
<path d="M5137 4043 c-4 -3 -7 -11 -7 -17 0 -6 5 -5 12 2 6 6 9 14 7 17 -3 3
-9 2 -12 -2z"/>
<path d="M5290 4035 c0 -8 4 -15 10 -15 5 0 7 7 4 15 -4 8 -8 15 -10 15 -2 0
-4 -7 -4 -15z"/>
<path d="M5335 4030 c-3 -5 -1 -10 4 -10 6 0 11 5 11 10 0 6 -2 10 -4 10 -3 0
-8 -4 -11 -10z"/>
<path d="M5460 4020 c0 -5 5 -10 10 -10 6 0 10 5 10 10 0 6 -4 10 -10 10 -5 0
-10 -4 -10 -10z"/>
<path d="M1820 4011 c0 -5 5 -13 10 -16 6 -3 10 -2 10 4 0 5 -4 13 -10 16 -5
3 -10 2 -10 -4z"/>
<path d="M4871 3984 c0 -11 3 -14 6 -6 3 7 2 16 -1 19 -3 4 -6 -2 -5 -13z"/>
<path d="M1666 3981 c-3 -5 0 -11 8 -14 8 -3 17 1 20 9 6 15 -19 20 -28 5z"/>
<path d="M2480 3976 c0 -9 -7 -16 -15 -16 -8 0 -15 -4 -15 -10 0 -16 15 -12
34 9 11 12 14 21 7 26 -6 3 -11 -1 -11 -9z"/>
<path d="M1891 3964 c0 -11 3 -14 6 -6 3 7 2 16 -1 19 -3 4 -6 -2 -5 -13z"/>
<path d="M2407 3969 c7 -7 15 -10 18 -7 3 3 -2 9 -12 12 -14 6 -15 5 -6 -5z"/>
<path d="M5170 3970 c0 -5 5 -10 10 -10 6 0 10 5 10 10 0 6 -4 10 -10 10 -5 0
-10 -4 -10 -10z"/>
<path d="M5286 3935 c4 -8 8 -15 10 -15 2 0 4 7 4 15 0 8 -4 15 -10 15 -5 0
-7 -7 -4 -15z"/>
<path d="M5440 3924 c0 -12 7 -24 15 -28 19 -7 19 5 0 30 -14 19 -14 19 -15
-2z"/>
<path d="M2359 3919 c-13 -8 -5 -13 15 -10 4 1 14 -4 22 -10 8 -6 14 -7 14 -3
0 16 -36 33 -51 23z"/>
<path d="M1875 3910 c-3 -5 -2 -10 4 -10 5 0 13 5 16 10 3 6 2 10 -4 10 -5 0
-13 -4 -16 -10z"/>
<path d="M4793 3905 c-19 -20 -17 -41 1 -26 10 9 16 9 21 1 5 -8 11 -8 21 1
11 9 11 15 3 25 -14 18 -31 17 -46 -1z"/>
<path d="M5187 3913 c-10 -9 -9 -23 2 -23 5 0 11 7 15 15 5 15 -5 20 -17 8z"/>
<path d="M5080 3900 c0 -6 7 -10 15 -10 8 0 15 2 15 4 0 2 -7 6 -15 10 -8 3
-15 1 -15 -4z"/>
<path d="M5286 3903 c-11 -11 -6 -23 9 -23 8 0 15 4 15 9 0 13 -16 22 -24 14z"/>
<path d="M5037 3893 c-14 -13 -6 -23 19 -23 23 0 24 2 10 15 -16 17 -20 18
-29 8z"/>
<path d="M5338 3883 c-10 -2 -18 -9 -18 -14 0 -6 10 -5 23 2 37 20 36 23 -5
12z"/>
<path d="M1868 3873 c6 -2 18 -2 25 0 6 3 1 5 -13 5 -14 0 -19 -2 -12 -5z"/>
<path d="M5416 3865 c-3 -9 1 -18 10 -22 19 -7 39 11 30 26 -10 16 -33 13 -40
-4z"/>
<path d="M2551 3861 c-8 -5 -9 -11 -3 -15 5 -3 12 1 16 9 6 17 6 18 -13 6z"/>
<path d="M2705 3860 c-3 -5 1 -10 10 -10 9 0 13 5 10 10 -3 6 -8 10 -10 10 -2
0 -7 -4 -10 -10z"/>
<path d="M4835 3857 c-10 -8 -15 -19 -11 -25 11 -19 26 -14 26 9 0 11 5 17 10
14 6 -3 10 -1 10 4 0 15 -12 14 -35 -2z"/>
<path d="M5200 3862 c0 -11 27 -42 37 -42 3 0 -2 10 -13 23 -10 12 -20 24 -21
26 -2 2 -3 -1 -3 -7z"/>
<path d="M4600 3850 c0 -5 4 -10 9 -10 6 0 13 5 16 10 3 6 -1 10 -9 10 -9 0
-16 -4 -16 -10z"/>
<path d="M5542 3831 c13 -15 27 -26 31 -24 10 6 -32 53 -46 53 -4 0 2 -13 15
-29z"/>
<path d="M4643 3838 c4 -10 10 -25 13 -33 4 -11 0 -15 -16 -15 -17 0 -20 4
-15 19 5 18 3 18 -19 8 -27 -13 -32 -22 -17 -31 5 -3 7 -16 5 -29 -2 -12 -2
-17 2 -10 3 7 12 9 20 6 7 -3 11 -10 8 -15 -4 -6 -1 -9 6 -6 8 2 17 11 21 19
18 35 35 98 23 86 -4 -4 -14 -1 -22 6 -13 10 -15 9 -9 -5z"/>
<path d="M5134 3829 c-4 -8 -3 -9 4 -5 7 4 12 2 12 -3 0 -6 5 -11 11 -11 13 0
7 22 -8 27 -6 2 -15 -1 -19 -8z"/>
<path d="M5280 3811 c0 -17 15 -19 28 -5 11 12 9 14 -8 14 -11 0 -20 -4 -20
-9z"/>
<path d="M2376 3801 c-4 -5 3 -7 14 -4 23 6 26 13 6 13 -8 0 -17 -4 -20 -9z"/>
<path d="M2720 3774 c0 -14 3 -15 18 -3 9 7 19 15 21 16 2 2 -5 3 -17 3 -14 0
-22 -6 -22 -16z"/>
<path d="M5162 3777 c-7 -8 -9 -17 -5 -20 3 -4 1 -7 -5 -7 -7 0 -12 -8 -12
-17 0 -16 2 -16 11 -3 7 10 12 11 15 4 3 -6 16 -9 31 -6 18 3 24 1 19 -7 -4
-6 -1 -11 8 -11 9 0 16 7 16 15 0 8 -4 15 -10 15 -5 0 -10 6 -10 14 0 8 -5 18
-12 22 -7 5 -8 3 -3 -7 5 -8 0 -6 -12 4 -17 15 -22 15 -31 4z"/>
<path d="M4516 3741 c-16 -18 -17 -21 -3 -21 8 0 17 -5 19 -11 2 -7 8 -6 16 3
9 11 9 18 -1 32 -12 16 -14 16 -31 -3z"/>
<path d="M4410 3747 c0 -3 12 -12 26 -22 15 -9 23 -12 20 -6 -7 11 -46 35 -46
28z"/>
<path d="M2816 3724 c-4 -9 -4 -19 -2 -21 8 -8 26 8 26 23 0 19 -16 18 -24 -2z"/>
<path d="M2115 3690 c14 -16 20 -17 26 -8 5 8 2 16 -9 20 -30 12 -35 8 -17
-12z"/>
<path d="M4611 3699 c16 -10 66 -12 56 -3 -4 4 -21 8 -38 9 -22 2 -27 0 -18
-6z"/>
<path d="M2890 3690 c0 -5 5 -10 11 -10 5 0 7 5 4 10 -3 6 -8 10 -11 10 -2 0
-4 -4 -4 -10z"/>
<path d="M4487 3687 c-2 -6 2 -18 9 -25 12 -11 14 -9 14 7 0 23 -16 36 -23 18z"/>
<path d="M2318 3664 c4 -24 26 -32 37 -14 3 6 -1 7 -10 4 -11 -4 -14 -2 -10 9
4 8 0 17 -8 20 -10 4 -13 -1 -9 -19z"/>
<path d="M4731 3673 c0 -12 -8 -29 -17 -37 -8 -9 -11 -16 -5 -16 5 0 13 5 16
10 5 8 11 7 21 -1 11 -9 14 -8 14 5 0 9 -4 16 -9 16 -5 0 -12 10 -14 23 -4 22
-4 22 -6 0z"/>
<path d="M5020 3679 c0 -5 5 -7 10 -4 6 3 10 8 10 11 0 2 -4 4 -10 4 -5 0 -10
-5 -10 -11z"/>
<path d="M5150 3679 c0 -5 5 -7 10 -4 6 3 10 8 10 11 0 2 -4 4 -10 4 -5 0 -10
-5 -10 -11z"/>
<path d="M4575 3670 c-3 -5 -1 -10 4 -10 6 0 11 5 11 10 0 6 -2 10 -4 10 -3 0
-8 -4 -11 -10z"/>
<path d="M5055 3670 c3 -5 8 -10 11 -10 2 0 4 5 4 10 0 6 -5 10 -11 10 -5 0
-7 -4 -4 -10z"/>
<path d="M5190 3675 c0 -4 8 -14 18 -21 15 -13 16 -15 1 -26 -20 -17 -46 -64
-29 -53 7 4 16 1 21 -6 6 -10 9 -4 9 19 0 19 5 32 13 32 6 0 17 12 24 26 10
22 10 24 -3 13 -11 -9 -18 -8 -34 6 -11 10 -20 15 -20 10z"/>
<path d="M2990 3666 c0 -2 11 -6 25 -8 14 -3 25 -1 25 3 0 5 -11 9 -25 9 -14
0 -25 -2 -25 -4z"/>
<path d="M4520 3649 c0 -5 10 -9 22 -9 12 0 18 3 14 7 -10 11 -36 12 -36 2z"/>
<path d="M2568 3643 c7 -3 16 -2 19 1 4 3 -2 6 -13 5 -11 0 -14 -3 -6 -6z"/>
<path d="M5087 3643 c-10 -9 -9 -23 2 -23 5 0 11 7 15 15 5 15 -5 20 -17 8z"/>
<path d="M5121 3626 c-9 -11 -6 -12 14 -8 14 2 22 8 19 13 -8 13 -20 11 -33
-5z"/>
<path d="M2487 3603 c-14 -13 -6 -23 18 -23 16 0 25 6 25 15 0 8 -4 15 -10 15
-5 0 -10 -4 -10 -10 0 -5 -5 -10 -11 -10 -5 0 -7 5 -4 10 7 11 2 13 -8 3z"/>
<path d="M4530 3600 c0 -5 5 -10 10 -10 6 0 10 5 10 10 0 6 -4 10 -10 10 -5 0
-10 -4 -10 -10z"/>
<path d="M4729 3593 c-12 -16 -12 -17 2 -6 12 10 18 10 27 1 6 -6 15 -8 19 -4
4 4 1 11 -7 16 -21 13 -26 12 -41 -7z"/>
<path d="M2405 3590 c-3 -6 -3 -19 0 -30 5 -16 9 -18 26 -7 23 14 26 29 4 21
-11 -5 -13 -2 -9 10 7 17 -11 22 -21 6z"/>
<path d="M5085 3590 c-3 -5 -1 -10 4 -10 6 0 11 5 11 10 0 6 -2 10 -4 10 -3 0
-8 -4 -11 -10z"/>
<path d="M4690 3535 c0 -8 9 -15 20 -15 24 0 27 15 4 24 -22 9 -24 8 -24 -9z"/>
<path d="M2925 3520 c3 -5 8 -10 11 -10 2 0 4 5 4 10 0 6 -5 10 -11 10 -5 0
-7 -4 -4 -10z"/>
<path d="M4645 3520 c-3 -5 -1 -10 4 -10 6 0 11 5 11 10 0 6 -2 10 -4 10 -3 0
-8 -4 -11 -10z"/>
<path d="M2904 3496 c-8 -22 3 -33 18 -18 9 9 9 15 0 24 -9 9 -13 7 -18 -6z"/>
<path d="M2765 3480 c3 -5 8 -10 11 -10 2 0 4 5 4 10 0 6 -5 10 -11 10 -5 0
-7 -4 -4 -10z"/>
<path d="M5280 3480 c0 -8 24 -20 41 -20 6 0 8 4 5 9 -8 12 -46 21 -46 11z"/>
<path d="M2945 3471 c-18 -7 -17 -9 10 -15 17 -4 36 -16 44 -28 12 -19 11 -20
-11 -16 -19 3 -24 0 -26 -16 -1 -15 1 -17 7 -7 5 8 16 11 30 6 25 -8 27 5 6
45 -11 21 -20 27 -32 23 -11 -4 -14 -3 -9 5 8 13 8 13 -19 3z"/>
<path d="M4421 3457 c-13 -21 -12 -21 5 -5 10 10 16 20 13 22 -3 3 -11 -5 -18
-17z"/>
<path d="M4735 3434 c-11 -17 -12 -25 -4 -22 6 2 16 14 20 26 11 29 5 28 -16
-4z"/>
<path d="M4771 3446 c-10 -12 -8 -13 8 -9 12 3 18 9 15 14 -7 12 -10 11 -23
-5z"/>
<path d="M5080 3446 c0 -2 7 -7 16 -10 8 -3 12 -2 9 4 -6 10 -25 14 -25 6z"/>
<path d="M2080 3430 c0 -5 5 -10 11 -10 5 0 7 5 4 10 -3 6 -8 10 -11 10 -2 0
-4 -4 -4 -10z"/>
<path d="M4597 3421 c9 -11 21 -18 25 -15 5 3 1 12 -9 20 -26 20 -35 17 -16
-5z"/>
<path d="M4833 3428 c-22 -10 -32 -37 -15 -39 54 -8 68 -5 69 13 2 15 -3 19
-18 15 -15 -4 -19 -2 -15 9 3 8 4 14 3 13 -1 0 -12 -5 -24 -11z"/>
<path d="M2722 3368 c7 -19 35 -21 35 -3 0 8 -9 15 -19 15 -11 0 -18 -5 -16
-12z"/>
<path d="M3265 3348 c4 -11 2 -18 -4 -18 -6 0 -11 -8 -11 -17 0 -14 3 -13 16
6 13 17 14 25 5 34 -9 9 -11 8 -6 -5z"/>
<path d="M4720 3340 c0 -5 5 -10 10 -10 6 0 10 5 10 10 0 6 -4 10 -10 10 -5 0
-10 -4 -10 -10z"/>
<path d="M4875 3332 c-3 -9 -3 -18 2 -19 39 -14 42 -33 4 -36 -16 -1 -19 -6
-14 -26 4 -18 3 -22 -7 -16 -10 6 -12 4 -7 -9 5 -14 3 -17 -8 -12 -9 3 -15 0
-15 -10 0 -8 5 -12 10 -9 6 3 10 0 10 -7 0 -15 37 36 51 70 5 13 13 20 19 17
19 -12 10 17 -14 46 -21 24 -25 26 -31 11z"/>
<path d="M2630 3320 c-13 -24 2 -27 24 -4 20 19 20 24 1 24 -8 0 -19 -9 -25
-20z"/>
<path d="M2885 3330 c-3 -5 -4 -10 0 -10 3 0 1 -9 -5 -20 -9 -17 -8 -20 9 -20
11 0 23 5 26 10 3 6 2 10 -3 10 -6 0 -8 9 -5 20 5 21 -11 28 -22 10z"/>
<path d="M4663 3328 c-4 -7 -8 -25 -9 -40 -1 -20 3 -26 16 -25 11 1 16 6 12
16 -4 11 -1 13 12 8 25 -10 40 2 25 19 -7 8 -20 12 -30 9 -14 -5 -17 -2 -13 9
7 19 -2 21 -13 4z"/>
<path d="M5060 3320 c0 -5 4 -10 9 -10 6 0 13 5 16 10 3 6 -1 10 -9 10 -9 0
-16 -4 -16 -10z"/>
<path d="M3210 3310 c0 -5 5 -10 11 -10 5 0 7 5 4 10 -3 6 -8 10 -11 10 -2 0
-4 -4 -4 -10z"/>
<path d="M4280 3301 c0 -5 -3 -16 -6 -25 -3 -9 -2 -16 3 -16 5 0 10 11 11 25
1 14 0 25 -3 25 -3 0 -5 -4 -5 -9z"/>
<path d="M2980 3270 c0 -13 5 -20 13 -17 6 2 12 10 12 17 0 7 -6 15 -12 18 -8
2 -13 -5 -13 -18z"/>
<path d="M4554 3265 c-10 -8 -14 -15 -8 -15 5 0 19 7 30 15 10 8 14 15 8 15
-5 0 -19 -7 -30 -15z"/>
<path d="M4792 3261 c7 -11 15 -18 19 -15 4 2 10 0 14 -6 6 -11 25 -4 25 8 0
7 -48 32 -62 32 -5 0 -3 -9 4 -19z"/>
<path d="M2650 3254 c0 -17 8 -23 35 -28 20 -4 40 -4 45 -1 12 7 13 35 3 35
-5 0 -18 3 -30 6 -18 5 -23 2 -23 -12 0 -17 -1 -16 -15 2 -14 19 -14 19 -15
-2z"/>
<path d="M3548 3253 c-22 -5 -23 -19 -4 -26 8 -3 16 2 19 14 3 10 4 18 4 18
-1 -1 -10 -3 -19 -6z"/>
<path d="M3236 3235 c4 -8 8 -15 10 -15 2 0 4 7 4 15 0 8 -4 15 -10 15 -5 0
-7 -7 -4 -15z"/>
<path d="M3485 3230 c10 -11 22 -20 27 -20 4 0 -1 9 -12 20 -11 11 -23 20 -27
20 -3 0 2 -9 12 -20z"/>
<path d="M4230 3230 c0 -6 7 -13 15 -17 24 -9 27 1 5 15 -13 8 -20 8 -20 2z"/>
<path d="M4580 3229 c0 -5 5 -7 10 -4 6 3 10 8 10 11 0 2 -4 4 -10 4 -5 0 -10
-5 -10 -11z"/>
<path d="M2830 3206 c0 -9 7 -16 16 -16 9 0 14 5 12 12 -6 18 -28 21 -28 4z"/>
<path d="M3168 3213 c7 -3 16 -2 19 1 4 3 -2 6 -13 5 -11 0 -14 -3 -6 -6z"/>
<path d="M4790 3213 c0 -5 5 -15 10 -23 8 -12 10 -11 10 8 0 12 -4 22 -10 22
-5 0 -10 -3 -10 -7z"/>
<path d="M4250 3190 c0 -5 5 -10 11 -10 5 0 7 5 4 10 -3 6 -8 10 -11 10 -2 0
-4 -4 -4 -10z"/>
<path d="M4310 3179 c0 -9 -9 -24 -20 -34 -11 -10 -20 -23 -20 -29 0 -6 7 -2
16 9 11 15 17 17 23 7 6 -11 10 -11 18 0 7 9 6 21 -3 38 -9 16 -14 19 -14 9z"/>
<path d="M4760 3170 c13 -11 25 -20 28 -20 3 0 -3 9 -13 20 -10 11 -23 20 -28
20 -6 0 0 -9 13 -20z"/>
<path d="M2810 3164 c0 -8 5 -12 10 -9 6 3 10 10 10 16 0 5 -4 9 -10 9 -5 0
-10 -7 -10 -16z"/>
<path d="M3150 3145 c10 -28 14 -31 45 -27 41 5 41 6 16 31 -19 19 -19 19 -25
-2 -5 -20 -5 -20 -25 4 l-21 24 10 -30z"/>
<path d="M4165 3160 c-3 -5 -1 -10 4 -10 6 0 11 5 11 10 0 6 -2 10 -4 10 -3 0
-8 -4 -11 -10z"/>
<path d="M4528 3148 c5 -5 16 -8 23 -6 8 3 3 7 -10 11 -17 4 -21 3 -13 -5z"/>
<path d="M4835 3130 c27 -12 43 -12 25 0 -8 5 -22 9 -30 9 -10 0 -8 -3 5 -9z"/>
<path d="M4760 3120 c-8 -5 -12 -12 -9 -15 4 -3 12 1 19 10 14 17 11 19 -10 5z"/>
<path d="M4653 3094 c-3 -8 0 -21 7 -27 10 -9 12 -8 7 5 -4 11 0 18 11 20 16
3 15 4 -1 11 -12 4 -20 1 -24 -9z"/>
<path d="M4786 3094 c-10 -25 1 -29 14 -5 6 12 7 21 1 21 -5 0 -12 -7 -15 -16z"/>
<path d="M4835 3090 c3 -5 11 -10 16 -10 6 0 7 5 4 10 -3 6 -11 10 -16 10 -6
0 -7 -4 -4 -10z"/>
<path d="M2635 3080 c3 -5 11 -10 16 -10 6 0 7 5 4 10 -3 6 -11 10 -16 10 -6
0 -7 -4 -4 -10z"/>
<path d="M3098 3083 c7 -3 16 -2 19 1 4 3 -2 6 -13 5 -11 0 -14 -3 -6 -6z"/>
<path d="M3140 3074 c0 -8 5 -12 10 -9 6 3 10 10 10 16 0 5 -4 9 -10 9 -5 0
-10 -7 -10 -16z"/>
<path d="M4088 3083 c7 -3 16 -2 19 1 4 3 -2 6 -13 5 -11 0 -14 -3 -6 -6z"/>
<path d="M3366 3064 c-7 -18 0 -34 15 -34 5 0 9 11 9 25 0 28 -15 34 -24 9z"/>
<path d="M3537 3060 c-3 -11 -1 -20 4 -20 5 0 9 9 9 20 0 11 -2 20 -4 20 -2 0
-6 -9 -9 -20z"/>
<path d="M4115 3070 c-3 -5 -4 -14 -1 -18 10 -16 -24 -51 -42 -45 -14 5 -15 3
-4 -8 16 -17 15 -26 -4 -33 -8 -3 -12 -2 -9 4 7 11 -8 14 -18 3 -10 -10 33
-37 62 -38 14 -1 40 -5 58 -9 19 -4 40 -3 52 4 14 7 21 7 21 0 0 -5 -6 -10
-14 -10 -8 0 -18 -4 -21 -10 -4 -6 6 -10 24 -10 27 0 30 3 28 30 -1 21 -7 30
-19 30 -10 0 -18 6 -18 14 0 8 -6 16 -12 19 -7 2 -9 8 -5 13 5 5 17 -1 28 -15
10 -13 19 -19 19 -15 0 5 5 2 10 -6 6 -9 10 -11 10 -3 0 7 7 10 17 6 37 -15 0
18 -44 37 -55 24 -53 24 -53 5 0 -22 -37 -18 -43 4 -2 11 -1 23 5 29 5 5 3 14
-6 21 -10 8 -16 9 -21 1z m15 -65 c0 -8 -7 -15 -15 -15 -16 0 -20 12 -8 23 11
12 23 8 23 -8z m-25 -45 c3 -5 1 -10 -4 -10 -6 0 -11 5 -11 10 0 6 2 10 4 10
3 0 8 -4 11 -10z m45 -4 c0 -3 -4 -8 -10 -11 -5 -3 -10 -1 -10 4 0 6 5 11 10
11 6 0 10 -2 10 -4z"/>
<path d="M2667 3063 c-4 -3 2 -13 14 -21 25 -18 9 -42 -30 -43 -16 0 -20 -3
-11 -6 8 -3 18 -11 22 -17 5 -7 8 -7 8 3 0 9 8 11 25 7 14 -4 25 -2 25 4 0 5
-6 10 -12 10 -10 0 -10 2 0 9 10 6 10 10 -3 21 -21 17 -19 28 8 33 17 3 15 5
-9 6 -17 0 -34 -2 -37 -6z"/>
<path d="M3690 3060 c-12 -8 -12 -10 -1 -10 11 0 11 -3 0 -17 -12 -15 -12 -16
3 -10 20 7 34 -10 30 -38 -2 -17 -1 -17 7 -5 15 21 14 47 -1 53 -10 4 -10 6 0
6 10 1 10 4 -2 16 -17 18 -17 18 -36 5z"/>
<path d="M2886 3025 c4 -8 8 -15 10 -15 2 0 4 7 4 15 0 8 -4 15 -10 15 -5 0
-7 -7 -4 -15z"/>
<path d="M3201 3023 c-10 -20 -9 -23 13 -29 29 -7 46 1 46 23 0 10 -6 14 -20
10 -10 -3 -21 0 -23 7 -2 6 -9 1 -16 -11z"/>
<path d="M3900 3030 c-8 -5 -12 -11 -9 -14 2 -3 11 -1 19 4 8 5 12 11 9 14 -2
3 -11 1 -19 -4z"/>
<path d="M3550 3015 c0 -9 5 -15 11 -13 6 2 11 8 11 13 0 5 -5 11 -11 13 -6 2
-11 -4 -11 -13z"/>
<path d="M3970 3020 c0 -5 5 -10 10 -10 6 0 10 5 10 10 0 6 -4 10 -10 10 -5 0
-10 -4 -10 -10z"/>
<path d="M2840 2999 c0 -5 5 -7 10 -4 6 3 10 8 10 11 0 2 -4 4 -10 4 -5 0 -10
-5 -10 -11z"/>
<path d="M4006 2995 c-18 -13 -18 -14 2 -12 11 0 18 5 15 11 -4 5 1 7 10 3 10
-3 17 -2 17 3 0 14 -22 12 -44 -5z"/>
<path d="M4696 3001 c-3 -5 1 -11 9 -14 9 -4 12 -1 8 9 -6 16 -10 17 -17 5z"/>
<path d="M3616 2971 c-3 -4 8 -8 24 -7 17 1 30 4 30 9 0 10 -48 9 -54 -2z"/>
<path d="M4300 2970 c0 -5 7 -10 15 -10 8 0 15 5 15 10 0 6 -7 10 -15 10 -8 0
-15 -4 -15 -10z"/>
<path d="M3520 2961 c0 -6 5 -13 11 -16 6 -4 8 -13 5 -20 -3 -10 2 -10 24 -2
40 15 45 34 9 32 -16 -1 -29 2 -29 7 0 4 -4 8 -10 8 -5 0 -10 -4 -10 -9z"/>
<path d="M4765 2960 c-3 -5 -1 -10 4 -10 6 0 11 5 11 10 0 6 -2 10 -4 10 -3 0
-8 -4 -11 -10z"/>
<path d="M4260 2950 c0 -5 7 -10 15 -10 8 0 15 5 15 10 0 6 -7 10 -15 10 -8 0
-15 -4 -15 -10z"/>
<path d="M3751 2934 c14 -17 2 -54 -18 -54 -14 0 -14 -2 1 -19 9 -10 16 -22
15 -27 -1 -5 -1 -17 0 -28 1 -14 4 -16 14 -7 8 6 22 12 33 14 34 5 66 28 60
42 -3 9 0 12 10 8 7 -3 14 -9 14 -15 0 -5 4 -7 9 -3 5 3 11 -3 13 -12 3 -16 6
-15 26 5 12 12 27 22 32 22 6 0 10 5 10 11 0 8 5 8 15 -1 22 -18 19 -27 -12
-39 l-28 -11 28 4 c20 2 27 0 23 -9 -3 -8 5 -13 22 -13 62 -2 76 -4 66 -8 -6
-2 -8 -18 -6 -34 3 -18 0 -30 -7 -30 -6 0 -11 4 -11 8 0 5 -7 9 -15 9 -8 0
-12 -4 -9 -8 2 -4 -5 -14 -16 -22 -11 -7 -17 -16 -14 -20 3 -3 -3 -18 -13 -33
l-18 -29 32 23 c40 28 43 28 43 -6 0 -35 37 -69 59 -55 9 6 16 20 15 32 0 11
3 21 8 21 18 0 7 19 -14 22 -25 4 -37 28 -14 28 9 0 16 8 16 19 0 15 6 19 23
17 13 -1 28 -6 35 -10 7 -4 12 -3 12 2 0 12 -29 24 -41 16 -5 -3 -9 -1 -9 5 0
6 -10 19 -22 31 -12 11 -17 20 -10 20 6 0 9 7 6 15 -4 10 -14 13 -28 9 -22 -5
-71 32 -95 73 -6 10 -11 12 -11 6 0 -16 -27 -17 -32 -3 -2 6 -25 13 -52 15
-43 3 -47 2 -43 -15 3 -11 -1 -21 -9 -24 -8 -3 -14 -12 -14 -20 0 -9 -6 -13
-14 -10 -8 3 -12 13 -10 22 2 9 1 31 -4 47 -7 23 -14 30 -35 31 -21 1 -25 -2
-16 -12z m197 -52 c2 -7 -3 -12 -12 -12 -9 0 -16 7 -16 16 0 17 22 14 28 -4z
m146 -245 c-9 -25 -34 -21 -34 6 0 13 3 27 7 31 11 11 34 -19 27 -37z"/>
<path d="M3660 2930 c0 -5 5 -10 10 -10 6 0 10 5 10 10 0 6 -4 10 -10 10 -5 0
-10 -4 -10 -10z"/>
<path d="M4054 2895 c-1 -14 1 -25 5 -25 3 0 16 -3 29 -6 21 -6 22 -4 13 19
-5 14 -8 27 -6 29 2 2 -6 5 -18 6 -17 1 -22 -4 -23 -23z"/>
<path d="M4536 2868 c1 -13 3 -27 3 -33 1 -5 8 -1 16 9 11 14 12 23 4 33 -17
20 -26 16 -23 -9z"/>
<path d="M3198 2853 c-10 -2 -18 -12 -18 -20 0 -14 3 -14 20 2 17 15 26 28 18
24 -2 -1 -11 -3 -20 -6z"/>
<path d="M4586 2845 c-3 -9 0 -15 9 -15 16 0 20 16 6 24 -5 3 -11 -1 -15 -9z"/>
<path d="M3590 2833 c0 -12 5 -25 11 -28 19 -12 22 3 5 27 l-16 22 0 -21z"/>
<path d="M4446 2834 c-5 -14 -4 -15 9 -4 17 14 19 20 6 20 -5 0 -12 -7 -15
-16z"/>
<path d="M3670 2831 c0 -5 5 -13 10 -16 6 -3 10 -2 10 4 0 5 -4 13 -10 16 -5
3 -10 2 -10 -4z"/>
<path d="M3925 2820 c-7 -12 23 -60 39 -60 6 0 5 4 -3 9 -7 5 -10 14 -7 20 4
6 1 18 -8 26 -9 9 -17 11 -21 5z"/>
<path d="M3025 2810 c-3 -5 -1 -10 4 -10 6 0 11 5 11 10 0 6 -2 10 -4 10 -3 0
-8 -4 -11 -10z"/>
<path d="M4452 2808 c-15 -15 -16 -31 -1 -22 6 3 15 0 20 -7 6 -10 9 -6 9 14
0 29 -9 34 -28 15z"/>
<path d="M4621 2804 c0 -11 3 -14 6 -6 3 7 2 16 -1 19 -3 4 -6 -2 -5 -13z"/>
<path d="M3100 2800 c0 -5 5 -10 11 -10 5 0 7 5 4 10 -3 6 -8 10 -11 10 -2 0
-4 -4 -4 -10z"/>
<path d="M3144 2787 c-12 -27 -8 -47 11 -47 8 0 11 7 8 20 -3 12 1 22 11 26 9
3 13 10 10 15 -10 16 -29 9 -40 -14z"/>
<path d="M3800 2781 c0 -8 3 -11 7 -8 3 4 12 -1 19 -11 12 -15 13 -15 14 8 0
19 -5 26 -20 26 -11 0 -20 -7 -20 -15z"/>
<path d="M4728 2783 c6 -2 10 -8 8 -12 -3 -4 -1 -13 5 -21 7 -13 9 -12 9 3 0
9 6 17 13 18 14 0 -22 18 -38 18 -5 -1 -4 -3 3 -6z"/>
<path d="M3280 2770 c0 -5 5 -10 11 -10 5 0 7 5 4 10 -3 6 -8 10 -11 10 -2 0
-4 -4 -4 -10z"/>
<path d="M4285 2754 c-19 -10 -31 -11 -33 -5 -6 19 -32 12 -32 -9 0 -17 4 -19
28 -14 15 4 29 10 32 13 3 4 16 12 30 18 14 6 21 12 15 12 -5 1 -23 -6 -40
-15z"/>
<path d="M3906 2745 c-9 -26 -7 -32 5 -12 6 10 9 21 6 23 -2 3 -7 -2 -11 -11z"/>
<path d="M4550 2736 c0 -8 5 -18 10 -21 6 -3 10 3 10 14 0 12 -4 21 -10 21 -5
0 -10 -6 -10 -14z"/>
<path d="M4630 2739 c0 -6 -9 -8 -21 -4 -15 5 -19 4 -15 -4 4 -6 13 -11 21
-11 7 0 16 -6 18 -12 3 -7 6 -1 6 15 1 15 -1 27 -4 27 -3 0 -5 -5 -5 -11z"/>
<path d="M4459 2738 c-1 -2 -3 -15 -4 -30 -3 -20 0 -25 11 -21 10 4 12 0 8
-11 -7 -17 11 -22 21 -6 3 6 14 10 25 10 10 0 20 6 23 14 4 10 0 13 -14 11
-11 -2 -17 0 -14 6 4 5 -6 14 -20 19 -27 10 -34 12 -36 8z"/>
<path d="M3691 2704 c-12 -27 -11 -28 4 -12 10 9 16 21 13 28 -2 7 -10 -1 -17
-16z"/>
<path d="M4300 2722 c0 -5 5 -13 12 -20 16 -16 29 -15 22 2 -6 16 -34 30 -34
18z"/>
<path d="M3763 2704 c-7 -18 17 -38 30 -25 9 9 -1 41 -14 41 -5 0 -12 -7 -16
-16z"/>
<path d="M4820 2711 c0 -5 5 -13 10 -16 6 -3 10 -2 10 4 0 5 -4 13 -10 16 -5
3 -10 2 -10 -4z"/>
<path d="M3320 2705 c0 -4 8 -14 18 -22 15 -12 13 -13 -17 -7 -23 4 -31 3 -27
-5 4 -6 16 -11 26 -11 10 0 20 -5 22 -12 2 -6 14 -13 26 -15 29 -4 30 26 2 50
-11 9 -20 14 -20 11 0 -4 -7 -1 -15 6 -8 7 -15 9 -15 5z"/>
<path d="M3645 2700 c-19 -8 -19 -9 3 -9 12 -1 22 4 22 9 0 6 -1 10 -2 9 -2 0
-12 -4 -23 -9z"/>
<path d="M3848 2703 c-16 -2 -28 -11 -28 -19 0 -21 34 -17 55 6 10 11 14 19 9
19 -5 -1 -21 -4 -36 -6z"/>
<path d="M4400 2680 c0 -5 7 -10 15 -10 8 0 15 5 15 10 0 6 -7 10 -15 10 -8 0
-15 -4 -15 -10z"/>
<path d="M3602 2659 c-16 -25 -15 -28 8 -22 11 3 20 11 20 19 0 22 -15 24 -28
3z"/>
<path d="M4160 2664 c0 -8 5 -12 10 -9 6 4 8 11 5 16 -9 14 -15 11 -15 -7z"/>
<path d="M4360 2651 c0 -10 26 -9 36 2 4 4 -2 7 -14 7 -12 0 -22 -4 -22 -9z"/>
<path d="M4411 2629 c-18 -16 -31 -33 -28 -36 3 -3 13 2 22 11 23 22 45 20 45
-5 0 -15 4 -19 16 -15 9 3 17 6 20 6 2 0 1 7 -2 15 -4 8 -13 15 -21 15 -10 0
-14 7 -10 20 7 28 -3 25 -42 -11z"/>
<path d="M3760 2640 c0 -5 5 -10 11 -10 6 0 9 -7 6 -14 -4 -10 -1 -13 9 -9 19
7 18 16 -6 31 -12 7 -20 8 -20 2z"/>
<path d="M3646 2624 c-9 -24 -8 -25 13 -12 11 7 17 16 15 20 -8 13 -21 9 -28
-8z"/>
<path d="M3710 2630 c0 -6 7 -13 15 -17 24 -9 27 1 5 15 -13 8 -20 8 -20 2z"/>
<path d="M4166 2624 c-4 -9 -2 -22 4 -29 14 -17 0 -27 -18 -12 -13 10 -14 8
-7 -13 4 -14 8 -37 7 -52 0 -16 4 -28 9 -28 5 0 9 -7 9 -16 0 -8 -4 -13 -8
-10 -5 3 -15 -4 -22 -15 -8 -10 -20 -19 -28 -19 -10 0 -10 -5 -2 -20 6 -11 16
-17 25 -14 8 4 12 10 9 15 -3 5 0 9 5 9 6 0 11 -8 12 -17 0 -15 2 -15 8 2 5
11 4 23 -1 26 -12 8 37 29 65 28 l22 0 -22 -9 c-13 -5 -23 -16 -23 -25 0 -12
5 -11 24 7 24 24 44 64 26 53 -6 -3 -10 0 -10 8 0 20 -45 48 -64 41 -19 -7
-20 0 -4 29 16 31 18 77 3 77 -7 0 -16 -7 -19 -16z"/>
<path d="M4326 2623 c-6 -14 -5 -15 5 -6 7 7 10 15 7 18 -3 3 -9 -2 -12 -12z"/>
<path d="M4490 2630 c0 -5 7 -10 16 -10 8 0 12 5 9 10 -3 6 -10 10 -16 10 -5
0 -9 -4 -9 -10z"/>
<path d="M4570 2616 c14 -8 29 -12 34 -8 10 6 -20 20 -44 21 -8 0 -4 -6 10
-13z"/>
<path d="M3810 2602 c0 -25 11 -34 26 -21 9 8 11 5 7 -11 -4 -15 -1 -21 8 -20
8 1 27 2 43 1 l28 -1 -23 -19 c-17 -13 -28 -16 -36 -9 -17 13 -34 1 -26 -19 4
-11 3 -14 -5 -9 -7 4 -12 3 -12 -3 0 -6 16 -13 35 -17 19 -3 35 -11 35 -17 0
-5 9 1 21 14 11 13 23 19 27 14 11 -15 74 -14 89 0 18 18 16 28 -3 21 -12 -4
-14 -1 -9 14 6 18 4 19 -27 8 -18 -6 -36 -16 -39 -21 -4 -6 -9 -5 -13 1 -3 5
2 13 11 16 14 6 13 9 -7 28 -13 13 -29 23 -36 24 -7 1 -23 11 -35 23 -28 26
-59 28 -59 3z m110 -93 c0 -5 -4 -9 -10 -9 -5 0 -10 7 -10 16 0 8 5 12 10 9 6
-3 10 -10 10 -16z"/>
<path d="M4732 2609 c2 -6 8 -10 13 -10 5 0 11 4 13 10 2 6 -4 11 -13 11 -9 0
-15 -5 -13 -11z"/>
<path d="M3977 2584 c9 -15 19 -21 21 -15 6 19 -6 41 -23 41 -14 0 -13 -3 2
-26z"/>
<path d="M3610 2556 c0 -14 -6 -31 -12 -38 -7 -7 -14 -29 -16 -50 -2 -32 0
-36 18 -31 21 6 28 37 10 48 -15 10 -12 21 15 53 21 25 23 31 9 36 -23 9 -24
8 -24 -18z"/>
<path d="M3691 2564 c0 -11 3 -14 6 -6 3 7 2 16 -1 19 -3 4 -6 -2 -5 -13z"/>
<path d="M4285 2570 c-4 -6 1 -10 10 -10 10 0 13 -5 9 -12 -4 -7 -3 -8 4 -4 7
4 12 11 12 16 0 12 -29 20 -35 10z"/>
<path d="M3779 2557 c6 -8 8 -17 4 -21 -4 -4 0 -4 9 -1 20 8 12 35 -9 35 -12
0 -13 -3 -4 -13z"/>
<path d="M3171 2544 c0 -11 3 -14 6 -6 3 7 2 16 -1 19 -3 4 -6 -2 -5 -13z"/>
<path d="M3387 2529 c4 -13 8 -18 11 -10 2 7 -1 18 -6 23 -8 8 -9 4 -5 -13z"/>
<path d="M3640 2530 c0 -5 7 -7 15 -4 8 4 15 8 15 10 0 2 -7 4 -15 4 -8 0 -15
-4 -15 -10z"/>
<path d="M4083 2523 c-7 -2 -13 -11 -13 -18 0 -10 5 -11 24 -2 33 16 23 34
-11 20z"/>
<path d="M3440 2504 c0 -8 5 -12 10 -9 6 3 10 10 10 16 0 5 -4 9 -10 9 -5 0
-10 -7 -10 -16z"/>
<path d="M3687 2499 c-4 -14 0 -19 14 -19 22 0 26 25 5 33 -8 3 -16 -2 -19
-14z"/>
<path d="M3470 2500 c0 -5 5 -10 10 -10 6 0 10 5 10 10 0 6 -4 10 -10 10 -5 0
-10 -4 -10 -10z"/>
<path d="M3790 2500 c0 -5 5 -10 11 -10 5 0 7 5 4 10 -3 6 -8 10 -11 10 -2 0
-4 -4 -4 -10z"/>
<path d="M3761 2484 c0 -11 3 -14 6 -6 3 7 2 16 -1 19 -3 4 -6 -2 -5 -13z"/>
<path d="M4573 2484 c4 -7 0 -18 -9 -25 -13 -10 -17 -10 -25 2 -6 10 -9 10 -9
2 0 -7 -6 -13 -13 -13 -7 0 -18 -9 -25 -20 -10 -17 -10 -20 2 -20 8 0 17 4 20
9 3 5 17 9 31 9 20 0 24 -4 20 -19 -5 -13 -1 -19 10 -19 10 0 13 -5 9 -12 -4
-7 -3 -8 4 -4 15 9 16 36 1 36 -6 0 -9 15 -8 34 2 19 -1 39 -5 43 -5 4 -6 3
-3 -3z"/>
<path d="M3335 2470 c3 -5 8 -10 11 -10 2 0 4 5 4 10 0 6 -5 10 -11 10 -5 0
-7 -4 -4 -10z"/>
<path d="M3759 2457 c-6 -10 -4 -47 2 -47 5 0 9 6 9 14 0 8 5 16 12 18 7 3 6
7 -5 11 -9 3 -18 5 -18 4z"/>
<path d="M3910 2420 c0 -12 7 -20 18 -21 13 0 12 -3 -5 -11 -29 -14 -29 -20 2
-34 19 -9 28 -9 42 2 16 13 16 14 -9 8 -36 -8 -35 -1 2 34 17 16 30 32 30 36
0 3 -18 6 -40 6 -33 0 -40 -3 -40 -20z"/>
<path d="M3685 2409 c-9 -28 -2 -33 13 -9 6 11 8 21 3 25 -5 3 -13 -4 -16 -16z"/>
<path d="M4257 2422 c-5 -7 -14 -9 -20 -6 -7 4 1 -7 17 -24 32 -34 49 -41 40
-17 -4 8 -10 13 -14 10 -5 -3 -10 7 -12 22 -2 19 -6 24 -11 15z"/>
<path d="M4364 2394 c3 -15 7 -29 10 -31 8 -9 36 5 36 18 0 6 -7 9 -14 6 -10
-4 -13 -1 -10 7 3 7 -2 16 -11 19 -12 5 -14 1 -11 -19z"/>
<path d="M3433 2371 c2 -25 19 -27 37 -6 8 9 8 15 2 15 -6 0 -17 3 -26 6 -11
4 -14 0 -13 -15z"/>
<path d="M3821 2367 c-12 -15 -5 -27 16 -27 7 0 13 9 13 20 0 23 -13 26 -29 7z"/>
<path d="M3698 2363 c6 -2 18 -2 25 0 6 3 1 5 -13 5 -14 0 -19 -2 -12 -5z"/>
<path d="M3225 2340 c3 -5 8 -10 11 -10 2 0 4 5 4 10 0 6 -5 10 -11 10 -5 0
-7 -4 -4 -10z"/>
<path d="M3865 2340 c-3 -5 1 -10 9 -10 9 0 16 5 16 10 0 6 -4 10 -9 10 -6 0
-13 -4 -16 -10z"/>
<path d="M3326 2324 c-8 -22 -1 -28 21 -19 12 5 14 9 5 12 -6 3 -10 9 -6 14 3
5 1 9 -4 9 -6 0 -13 -7 -16 -16z"/>
<path d="M3680 2329 c0 -5 -4 -7 -10 -4 -5 3 -10 0 -10 -8 0 -11 7 -13 22 -9
18 4 20 2 15 -14 -7 -18 -7 -18 8 0 8 11 21 24 27 29 8 5 5 6 -9 2 -14 -4 -23
-2 -23 4 0 6 -4 11 -10 11 -5 0 -10 -5 -10 -11z"/>
<path d="M4340 2311 c-6 -12 -7 -21 -1 -21 10 0 24 30 17 37 -2 3 -9 -5 -16
-16z"/>
<path d="M3760 2311 c0 -6 6 -11 13 -12 6 0 3 -4 -8 -9 -18 -8 -17 -9 8 -9 22
-1 28 3 25 16 -4 19 -38 31 -38 14z"/>
<path d="M3571 2294 c0 -11 3 -14 6 -6 3 7 2 16 -1 19 -3 4 -6 -2 -5 -13z"/>
<path d="M4380 2303 c0 -5 11 -9 25 -9 14 -1 22 2 19 7 -6 11 -44 12 -44 2z"/>
<path d="M4470 2295 c0 -8 2 -15 4 -15 2 0 6 7 10 15 3 8 1 15 -4 15 -6 0 -10
-7 -10 -15z"/>
<path d="M4390 2270 c0 -5 -18 -8 -40 -6 -39 3 -66 -9 -36 -16 13 -3 13 -6 0
-23 -10 -13 -17 -16 -22 -9 -4 6 -17 14 -29 18 -16 5 -25 2 -33 -14 -11 -20
-9 -21 23 -24 6 -1 15 -5 18 -10 9 -11 46 10 59 34 14 26 30 26 23 1 -4 -16
-1 -19 18 -14 13 4 18 8 12 10 -16 6 6 43 24 43 7 0 13 5 13 10 0 6 -7 10 -15
10 -8 0 -15 -4 -15 -10z"/>
<path d="M3824 2258 c-4 -7 -9 -25 -11 -40 -2 -21 1 -28 15 -28 13 0 14 2 3 9
-11 7 -10 10 4 18 11 7 14 13 7 17 -6 4 -9 13 -5 21 6 18 -3 20 -13 3z"/>
<path d="M4000 2250 c-13 -8 -13 -11 -1 -22 9 -8 12 -9 7 -1 -3 6 2 16 11 22
10 6 14 10 8 11 -5 0 -17 -5 -25 -10z"/>
<path d="M3865 2240 c3 -5 13 -10 21 -10 8 0 14 5 14 10 0 6 -9 10 -21 10 -11
0 -17 -4 -14 -10z"/>
<path d="M3680 2195 c0 -9 5 -15 11 -13 6 2 11 8 11 13 0 5 -5 11 -11 13 -6 2
-11 -4 -11 -13z"/>
<path d="M4010 2164 c0 -13 47 -70 54 -64 2 3 -9 21 -25 40 -15 19 -29 30 -29
24z"/>
<path d="M4302 2158 c6 -18 28 -21 28 -4 0 9 -7 16 -16 16 -9 0 -14 -5 -12
-12z"/>
<path d="M3715 2150 c-3 -6 1 -7 9 -4 18 7 21 14 7 14 -6 0 -13 -4 -16 -10z"/>
<path d="M3530 2141 c0 -10 30 -24 37 -17 3 2 -5 9 -16 16 -12 6 -21 7 -21 1z"/>
<path d="M3595 2120 c3 -5 8 -10 11 -10 2 0 4 5 4 10 0 6 -5 10 -11 10 -5 0
-7 -4 -4 -10z"/>
<path d="M4190 2126 c0 -2 7 -6 15 -10 8 -3 15 -1 15 4 0 6 -7 10 -15 10 -8 0
-15 -2 -15 -4z"/>
<path d="M4330 2085 c-7 -9 -8 -15 -2 -15 5 0 12 7 16 15 3 8 4 15 2 15 -2 0
-9 -7 -16 -15z"/>
<path d="M4385 2090 c3 -5 8 -10 11 -10 2 0 4 5 4 10 0 6 -5 10 -11 10 -5 0
-7 -4 -4 -10z"/>
<path d="M4060 2045 c7 -9 15 -13 17 -11 7 7 -7 26 -19 26 -6 0 -6 -6 2 -15z"/>
<path d="M3970 2036 c0 -7 9 -16 21 -19 20 -5 20 -5 3 14 -20 23 -24 23 -24 5z"/>
<path d="M4220 2005 c0 -8 2 -15 4 -15 2 0 6 7 10 15 3 8 1 15 -4 15 -6 0 -10
-7 -10 -15z"/>
<path d="M3981 1956 c-9 -11 -7 -15 8 -19 14 -3 17 0 14 14 -6 23 -7 23 -22 5z"/>
<path d="M4051 1943 c0 -6 -4 -20 -7 -30 -5 -14 -4 -15 5 -7 7 7 11 20 8 30
-3 11 -5 14 -6 7z"/>
<path d="M4368 1933 c7 -3 16 -2 19 1 4 3 -2 6 -13 5 -11 0 -14 -3 -6 -6z"/>
<path d="M4340 1901 c0 -6 4 -13 10 -16 6 -3 7 1 4 9 -7 18 -14 21 -14 7z"/>
</g>
</svg>
